<?xml version="1.0" encoding="UTF-8"?>
<svg id="Layer_2" data-name="Layer 2" xmlns="http://www.w3.org/2000/svg" viewBox="0 0 491.11 120.87">
  <defs>
    <style>
      .cls-1 {
        fill: #fff;
      }
    </style>
  </defs>
  <g>
    <path class="cls-1" d="M57.24,78.66V1.14h33.67c19.6,0,31.12,10.3,31.12,27.13s-11.52,26.58-31.12,26.58h-11.52v23.81h-22.15Zm22.15-40.98h9.64c6.42,0,10.85-3.21,10.85-9.41s-4.43-9.41-10.85-9.41h-9.64v18.83Z"/>
    <path class="cls-1" d="M142.84,78.66V1.14h22.15V78.66h-22.15Z"/>
    <path class="cls-1" d="M187.47,78.66v-17.72l36.22-40.98v-1.11h-34.55V1.14h63.68V18.86l-36.22,40.98v1.11h37.88v17.72h-67.01Z"/>
    <path class="cls-1" d="M274.41,78.66v-17.72l36.22-40.98v-1.11h-34.55V1.14h63.68V18.86l-36.22,40.98v1.11h37.88v17.72h-67.01Z"/>
    <path class="cls-1" d="M414.95,78.66l-3.88-13.85h-26.36l-3.88,13.85h-22.59L383.72,1.14h28.91l25.47,77.53h-23.15Zm-25.58-30.46h17.06l-7.97-28.8h-1.11l-7.97,28.8Z"/>
  </g>
  <g>
    <path class="cls-1" d="M345.24,45.88c9.15,0,15.45,3.98,18.89,11.95,.21,2.64,.31,4.11,.31,4.4,0,7.76-4.83,14.07-14.49,18.93v.62c2.55,0,5.91,2.09,10.09,6.27,2.1,3.23,3.15,6.28,3.15,9.15,0,4.03-2,8.12-6,12.26-4.27,4.3-10.35,7.66-18.26,10.09h-5.02c-1.1,0-1.73-.31-1.91-.93v-.62c0-.95,3.47-3.1,10.4-6.44,6.93-3.35,10.4-6.98,10.4-10.89,0-5.12-4.31-8.28-12.93-9.47-2.13,.21-3.81,.31-5.02,.31h-5.02c-1.01,0-2.8,3.57-5.38,10.71-3.7,9.07-6.22,13.69-7.55,13.87h-2.49c-1.15-.41-1.79-2.42-1.91-6,1.57-13.12,6.71-28.02,15.42-44.7l5.69-8.18h-.31c-2.73,.62-4.21,.93-4.45,.93h-1.24c-1.04-.5-1.55-1.55-1.55-3.15,0-4.29,5.35-7.33,16.04-9.11h3.15Zm-5.69,10.4l.31,.62c0,4.5-2.52,13.11-7.55,25.82h.31c4.24-1.48,8.44-3.15,12.62-5.02,5.86-4.24,8.8-8.13,8.8-11.69v-.93c0-5.01-4.3-7.94-12.89-8.8h-1.6Z"/>
    <path class="cls-1" d="M384.63,94.59c-1.78,6.73-3.14,11.2-4.09,13.42-1.87,2.1-4.04,3.47-6.53,4.09-1.1,.32-1.88,.49-2.36,.49-2.87,0-4.87-1.81-6-5.42-.59-2.37-.9-3.75-.93-4.13-.3-3.64,1.27-10.08,4.71-19.31,3.44-9.23,6-15.71,7.69-19.44,1.69-3.73,4.76-8.64,9.2-14.71,2.37-2.22,3.94-3.33,4.71-3.33,1.39,.27,2.12,.84,2.18,1.73l.27,2.84c.41,4.95,.09,8.74-.98,11.38-.12,.18-.49,1.41-1.11,3.69l-1.47,6.09c4.45-4.24,8.49-7.48,12.13-9.73,2.84-1.66,6.86-3.49,12.04-5.51,2.31-.5,3.7-.64,4.18-.4,.68,.62,.84,1.21,.49,1.78l-1.07,1.73c-1.87,3.02-6.62,7.36-14.26,13.02-.15,.06-.89,.64-2.22,1.73l-8.09,8.35c-.18,.15-.34,.31-.49,.49,2.28,2.19,4.93,4.75,7.95,7.69,11.67,11.82,21.03,20.01,28.09,24.58l1.24,2.04c.39,.65,.21,1.32-.53,2-.5,.3-2.07,.1-4.71-.58-6.61-1.6-12.24-3.82-16.89-6.67-4.65-2.84-10.95-7.48-18.89-13.91-1.54-1.42-2.96-2.76-4.27-4Z"/>
    <path class="cls-1" d="M441.75,94.59c-1.78,6.73-3.14,11.2-4.09,13.42-1.87,2.1-4.04,3.47-6.53,4.09-1.1,.32-1.88,.49-2.36,.49-2.87,0-4.87-1.81-6-5.42-.59-2.37-.9-3.75-.93-4.13-.3-3.64,1.27-10.08,4.71-19.31,3.44-9.23,6-15.71,7.69-19.44,1.69-3.73,4.76-8.64,9.2-14.71,2.37-2.22,3.94-3.33,4.71-3.33,1.39,.27,2.12,.84,2.18,1.73l.27,2.84c.41,4.95,.09,8.74-.98,11.38-.12,.18-.49,1.41-1.11,3.69l-1.47,6.09c4.45-4.24,8.49-7.48,12.13-9.73,2.84-1.66,6.86-3.49,12.04-5.51,2.31-.5,3.7-.64,4.18-.4,.68,.62,.84,1.21,.49,1.78l-1.07,1.73c-1.87,3.02-6.62,7.36-14.26,13.02-.15,.06-.89,.64-2.22,1.73l-8.09,8.35c-.18,.15-.34,.31-.49,.49,2.28,2.19,4.93,4.75,7.95,7.69,11.67,11.82,21.03,20.01,28.09,24.58l1.24,2.04c.39,.65,.21,1.32-.53,2-.5,.3-2.07,.1-4.71-.58-6.61-1.6-12.24-3.82-16.89-6.67-4.65-2.84-10.95-7.48-18.89-13.91-1.54-1.42-2.96-2.76-4.27-4Z"/>
  </g>
  <path class="cls-1" d="M38.76,32.75c-14.15,5.26-30.85,16.58-30.41,32.93,2.27,11.94,14.51,18.31,24.98,22.94,13.34,5.36,27.74,8.74,42.29,11.05,29.3,4.67,59.2,5.87,88.91,5.99,41.21,.22,82.54-1.94,123.7-4.41l11.31-.56,.09,.69c-29.84,4.01-59.81,7.2-89.88,9.08-56.15,2.83-126.31,5.14-178.65-17.01C6.21,82.22-7.1,62.32,18.26,41.93c6.02-4.64,13.04-7.83,20.32-9.85l.19,.67h0Z"/>
</svg>